<?xml version="1.0" encoding="UTF-8" standalone="no"?>
<!-- Created with Inkscape (http://www.inkscape.org/) -->

<svg
   xmlns:dc="http://purl.org/dc/elements/1.1/"
   xmlns:cc="http://creativecommons.org/ns#"
   xmlns:rdf="http://www.w3.org/1999/02/22-rdf-syntax-ns#"
   xmlns:svg="http://www.w3.org/2000/svg"
   xmlns="http://www.w3.org/2000/svg"
   xmlns:sodipodi="http://sodipodi.sourceforge.net/DTD/sodipodi-0.dtd"
   xmlns:inkscape="http://www.inkscape.org/namespaces/inkscape"
   width="304.10678"
   height="290.77267"
   viewBox="0 0 304.10678 290.77267"
   id="svg2"
   version="1.1"
   inkscape:version="0.91 r13725"
   sodipodi:docname="radioControl.svg">
  <sodipodi:namedview
     id="base"
     pagecolor="#ffffff"
     bordercolor="#666666"
     borderopacity="1.0"
     inkscape:pageopacity="0.0"
     inkscape:pageshadow="2"
     inkscape:zoom="1.979899"
     inkscape:cx="124.87642"
     inkscape:cy="143.85226"
     inkscape:document-units="px"
     inkscape:current-layer="g6191"
     showgrid="false"
     fit-margin-top="0"
     fit-margin-left="0"
     fit-margin-right="0"
     fit-margin-bottom="0"
     inkscape:window-width="1920"
     inkscape:window-height="1032"
     inkscape:window-x="0"
     inkscape:window-y="0"
     inkscape:window-maximized="1"
     showguides="true"
     inkscape:guide-bbox="true"
     units="px" />
  <defs
     id="defs4">
    <filter
       inkscape:collect="always"
       style="color-interpolation-filters:sRGB"
       id="filter4285"
       x="-0.042715922"
       width="1.0854318"
       y="-0.069116555"
       height="1.1382331">
      <feGaussianBlur
         inkscape:collect="always"
         stdDeviation="1.5031831"
         id="feGaussianBlur4287" />
    </filter>
    <filter
       inkscape:collect="always"
       style="color-interpolation-filters:sRGB"
       id="filter4305"
       x="-0.053274844"
       width="1.1065497"
       y="-0.052333545"
       height="1.1046671">
      <feGaussianBlur
         inkscape:collect="always"
         stdDeviation="0.70265578"
         id="feGaussianBlur4307" />
    </filter>
    <filter
       inkscape:collect="always"
       style="color-interpolation-filters:sRGB"
       id="filter4810"
       x="-0.031591322"
       width="1.0631826"
       y="-0.16065484"
       height="1.3213097">
      <feGaussianBlur
         inkscape:collect="always"
         stdDeviation="1.4926596"
         id="feGaussianBlur4812" />
    </filter>
    <filter
       inkscape:collect="always"
       style="color-interpolation-filters:sRGB"
       id="filter4848"
       x="-0.052918106"
       width="1.1058362"
       y="-0.052682418"
       height="1.1053648">
      <feGaussianBlur
         inkscape:collect="always"
         stdDeviation="1.0512851"
         id="feGaussianBlur4850" />
    </filter>
  </defs>
  <metadata
     id="metadata7">
    <rdf:RDF>
      <cc:Work
         rdf:about="">
        <dc:format>image/svg+xml</dc:format>
        <dc:type
           rdf:resource="http://purl.org/dc/dcmitype/StillImage" />
        <dc:title />
      </cc:Work>
    </rdf:RDF>
  </metadata>
  <g
     transform="translate(76.594473,73.236059)"
     inkscape:groupmode="layer"
     id="layer3"
     inkscape:label="back"
     style="display:inline" />
  <g
     transform="translate(76.594473,73.236059)"
     inkscape:groupmode="layer"
     id="layer2"
     inkscape:label="Layer 2">
    <text
       xml:space="preserve"
       style="font-style:normal;font-weight:normal;font-size:22.5px;line-height:125%;font-family:'Bitstream Vera Sans';letter-spacing:0px;word-spacing:0px;fill:#000000;fill-opacity:1;stroke:none;stroke-width:1px;stroke-linecap:butt;stroke-linejoin:miter;stroke-opacity:1"
       x="214.15234"
       y="61.402557"
       id="text4234"
       sodipodi:linespacing="125%"><tspan
         sodipodi:role="line"
         id="tspan4236"
         x="214.15234"
         y="61.402557" /></text>
  </g>
  <g
     transform="translate(76.594473,73.236059)"
     inkscape:label="Layer 1"
     inkscape:groupmode="layer"
     id="layer1"
     style="display:inline">
    <rect
       transform="matrix(1.000000,0.000000,0.000000,1.000000,0.000000,0.000000)"
       style="color:#000000;display:inline;overflow:visible;visibility:visible;opacity:1;fill:#000000;fill-opacity:1;fill-rule:nonzero;stroke:#000000;stroke-width:0.25120145;stroke-linecap:round;stroke-linejoin:round;stroke-miterlimit:4;stroke-dasharray:none;stroke-dashoffset:0;stroke-opacity:1;marker:none;marker-start:none;marker-mid:none;marker-end:none;enable-background:accumulate"
       id="rect4208"
       width="303.85559"
       height="290.52148"
       x="-76.468872"
       y="-73.110458" />
    <g
       id="g6191">
      <circle
         r="25.132891"
         cy="93.586296"
         cx="46.392857"
         id="volumeKnobBBox"
         style="color:#000000;display:inline;overflow:visible;visibility:visible;opacity:1;fill:#000000;fill-opacity:1;fill-rule:nonzero;stroke:#000000;stroke-width:0.59136212;stroke-linecap:round;stroke-linejoin:round;stroke-miterlimit:4;stroke-dasharray:none;stroke-dashoffset:0;stroke-opacity:1;marker:none;marker-start:none;marker-mid:none;marker-end:none;enable-background:accumulate"
         inkscape:label="#path6189" />
      <path
         id="volumeKnob-glow"
         d="M-27.1443240063 94.683149497C-37.1764186625 114.959494334 -30.3273269199 144.775269283 -9.27852185265 154.604263712C-3.24638601601 149.581118222 10.3300100136 123.880019864 -0.046764255093 143.984363701C-8.40188426905 151.483223663 -6.40732822357 162.001167649 5.43523987424 162.245325474C36.9307966325 171.03263009 70.2810626613 140.726229569 64.335457977 108.532820452C61.1750867157 75.4400782948 19.5077119268 55.533929075 -8.23008022472 73.8472903154C-16.4611690409 78.6435789436 -23.0600661048 86.1027545752 -27.1443240063 94.683149497C-27.1443240063 94.683149497 -27.1443240063 94.683149497 -27.1443240063 94.683149497"
         style="color:#000000;display:inline;overflow:visible;visibility:visible;opacity:1;fill:#b7a8f1;fill-opacity:1;fill-rule:nonzero;stroke:none;stroke-width:0.5;stroke-linecap:round;stroke-linejoin:round;stroke-miterlimit:4;stroke-dasharray:none;stroke-dashoffset:0;stroke-opacity:1;marker:none;marker-start:none;marker-mid:none;marker-end:none;filter:url(#filter4848);enable-background:accumulate" />
      <path
         id="volumeKnob"
         d="M-21.079342 92.087088C-31.533745 109.00697 -29.421684 130.82178 -15.915647 145.42189C-14.282321 147.17895 -12.508875 148.80034 -10.612837 150.27006C-10.612837 150.27006 2.569767 129.11251 2.569767 129.11251C2.569767 129.11251 10.342676 133.95558 10.342676 133.95558C10.342676 133.95558 -2.8545043 155.1365 -2.8545043 155.1365C13.567721 163.16039 33.232731 160.26752 46.648508 147.85426C64.594389 131.24927 65.68243 103.2406 49.078832 85.293456C32.475205 67.345176 4.4655127 66.254666 -13.483274 82.857734C-16.42087 85.576649 -18.976192 88.681398 -21.079342 92.087088C-21.079342 92.087088 -21.079342 92.087088 -21.079342 92.087088"
         style="color:#000000;overflow:visible;visibility:visible;opacity:1;fill:#655d84;fill-opacity:1;fill-rule:nonzero;stroke:none;stroke-width:1;stroke-linecap:round;stroke-linejoin:round;stroke-miterlimit:4;stroke-dasharray:none;stroke-dashoffset:0;stroke-opacity:1;marker:none;marker-start:none;marker-mid:none;marker-end:none;enable-background:accumulate" />
    </g>
    <g
       inkscape:label="#g4929"
       id="pauseButton">
      <path
         style="color:#000000;overflow:visible;visibility:visible;opacity:1;fill:#b7a8f1;fill-opacity:1;fill-rule:nonzero;stroke-width:1;stroke-linecap:round;stroke-linejoin:round;stroke-miterlimit:4;stroke-dasharray:none;stroke-dashoffset:0;stroke-opacity:1;marker:none;marker-start:none;marker-mid:none;marker-end:none;filter:url(#filter4305);enable-background:accumulate"
         d="M110.22313 121.36301C103.8776 125.40453 99.440805 133.25653 106.32663 139.22897C116.1914 152.70757 125.01572 168.76552 138.66381 178.17037C147.56146 176.61407 157.17671 170.84384 159.41287 161.56085C171.2898 162.12958 188.27048 146.91642 177.81866 135.37054C165.20964 124.38886 159.83067 105.27623 144.39711 97.849121C135.51836 100.3908 127.63613 109.17099 122.73787 114.1185C118.17048 115.67924 114.02004 118.4167 110.22313 121.36301C110.22313 121.36301 110.22313 121.36301 110.22313 121.36301"
         id="pauseButton-glow" />
      <path
         style="color:#000000;display:inline;overflow:visible;visibility:visible;opacity:1;fill:#655d84;fill-opacity:1;fill-rule:nonzero;stroke-width:1;stroke-linecap:round;stroke-linejoin:round;stroke-miterlimit:4;stroke-dasharray:none;stroke-dashoffset:0;stroke-opacity:1;marker:none;marker-start:none;marker-mid:none;marker-end:none;enable-background:accumulate"
         d="M110.22821 131.73577C110.22821 131.73577 139.56611 170.793 139.56611 170.793C139.56611 170.793 152.35371 161.18756 152.35371 161.18756C152.35371 161.18756 123.01581 122.13034 123.01581 122.13034C123.01581 122.13034 110.22821 131.73577 110.22821 131.73577M131.88752 115.46635C131.88752 115.46635 161.2254 154.52357 161.2254 154.52357C161.2254 154.52357 174.013 144.91814 174.013 144.91814C174.013 144.91814 144.67512 105.86091 144.67512 105.86091C144.67512 105.86091 131.88752 115.46635 131.88752 115.46635"
         id="pauseElevens" />
    </g>
    <path
       style="fill:#b7a8f1;fill-opacity:1;fill-rule:evenodd;stroke:none;stroke-width:0.75210816px;stroke-linecap:butt;stroke-linejoin:miter;stroke-opacity:1;filter:url(#filter4285)"
       d="M32.549919 46.791252C21.463484 45.596368 10.936124 49.215839 0.25797818 51.533689C21.732493 63.673834 51.644763 69.224507 60.713369 95.447585C69.913678 119.51773 57.266064 144.29987 45.580836 164.93528C43.444965 172.61633 53.642643 173.19579 57.608138 168.76466C111.13345 129.25421 163.68412 88.385101 216.8639 48.393054C155.42339 48.127773 93.992603 46.612195 32.549919 46.791252C32.549919 46.791252 32.549919 46.791252 32.549919 46.791252"
       id="nextButton-glow" />
    <path
       id="nextButton"
       d="M22.999314 54.463308C22.999314 54.463308 193.18337 56.241448 193.18337 56.241448C193.18337 56.241448 56.85844 159.64171 56.85844 159.64171C90.662171 106.16912 62.576181 64.814231 22.999314 54.463308C22.999314 54.463308 22.999314 54.463308 22.999314 54.463308"
       style="fill:#655d84;fill-opacity:1;fill-rule:evenodd;stroke:none;stroke-width:1;stroke-linecap:butt;stroke-linejoin:miter;stroke-miterlimit:4;stroke-dasharray:none;stroke-opacity:1" />
    <g
       transform="translate(40.599443,-197.56651)"
       id="g4224" />
    <g
       id="fediverseText"
       inkscape:label="#g4209">
      <path
         id="fediverseText-glow"
         d="M-31.315746 -0.37948608C-31.315746 12.503184 -31.315746 25.385854 -31.315746 38.268523C-11.298594 46.27804 -21.051209 24.517791 -9.5988606 23.962463C-1.7194559 21.72179 -4.223033 33.663009 2.5819476 36.186575C9.967484 41.316244 21.737686 38.851517 26.203658 32.058083C32.933256 43.497817 48.036006 36.58765 58.259476 38.268523C75.795579 45.863101 65.56572 11.837351 72.955166 35.545064C78.896718 43.967524 92.480847 35.711306 91.354293 27.630497C94.315146 40.015309 112.32118 42.040574 119.56498 34.238426C124.71409 45.244098 140.97926 35.89405 134.52433 22.297691C133.96054 18.026634 139.43602 17.982706 139.55015 22.061547C134.60113 23.364236 138.01029 34.202598 143.14733 36.497497C150.72307 41.29164 162.33916 38.450885 167.26495 33.313559C175.387 43.481857 194.6069 39.004641 196.2785 26.18611C198.63647 18.755235 192.47177 4.0609357 181.05151 4.481033C175.34841 3.6211513 169.42536 7.7533512 166.32432 10.939425C161.80763 3.4461645 150.99464 3.0857529 143.76916 6.4134446C137.43707 2.2840859 127.43398 6.8384788 119.56498 5.142231C121.64362 14.954692 115.61943 4.2292729 111.09939 4.850996C106.58373 3.8979384 101.63576 4.6539242 97.804807 7.2989577C93.822506 -3.6710077 77.133712 15.412793 79.260052 7.983772C67.154485 7.4921606 72.615912 -7.3845812 58.259476 -4.4095835C48.200071 -5.792592 39.846566 -4.6520744 40.958389 4.6699439C34.752361 2.7501062 28.150981 8.3852302 25.388994 11.262156C20.314034 3.1968425 7.9081445 2.295753 1.0824693 8.5819795C6.1481204 -8.2027112 -9.3673315 -4.4062788 -21.083066 -4.4095835C-24.689963 -3.1580972 -33.749118 -7.5550342 -31.315746 -0.37948608C-31.315746 -0.37948608 -31.315746 -0.37948608 -31.315746 -0.37948608M-0.38160466 10.049983C-0.96774202 11.951846 -2.2017981 9.6941655 -0.38160466 10.049983C-0.38160466 10.049983 -0.38160466 10.049983 -0.38160466 10.049983M40.793094 17.736285C46.077902 21.400188 38.032679 30.874403 38.388416 21.065831C38.448866 19.661826 38.789975 17.247233 40.793094 17.736285C40.793094 17.736285 40.793094 17.736285 40.793094 17.736285"
         style="font-style:normal;font-variant:normal;font-weight:bold;font-stretch:normal;font-size:medium;line-height:81.00000024%;font-family:'Helvetica Neue';-inkscape-font-specification:'Helvetica Neue Bold';text-align:end;letter-spacing:0px;word-spacing:0px;text-anchor:end;opacity:1;fill:#b7a8f1;fill-opacity:1;stroke:none;stroke-width:1px;stroke-linecap:butt;stroke-linejoin:miter;stroke-opacity:1;filter:url(#filter4810)" />
      <path
         id="fediverseTextUnder"
         d="M-27.285648 -0.37948608C-27.285648 -0.37948608 -27.285648 34.238426 -27.285648 34.238426C-27.285648 34.238426 -19.674104 34.238426 -19.674104 34.238426C-19.674104 34.238426 -19.674104 19.932366 -19.674104 19.932366C-19.674104 19.932366 -5.175204 19.932366 -5.175204 19.932366C-5.175204 19.932366 -5.175204 14.01711 -5.175204 14.01711C-5.175204 14.01711 -19.674104 14.01711 -19.674104 14.01711C-19.674104 14.01711 -19.674104 6.0198854 -19.674104 6.0198854C-19.674104 6.0198854 -2.9476281 6.0198854 -2.9476281 6.0198854C-2.9476281 6.0198854 -2.9476281 -0.37948608 -2.9476281 -0.37948608C-2.9476281 -0.37948608 -27.285648 -0.37948608 -27.285648 -0.37948608C-27.285648 -0.37948608 -27.285648 -0.37948608 -27.285648 -0.37948608M46.070789 -0.37948608C46.070789 -0.37948608 46.070789 12.226376 46.070789 12.226376C46.070789 12.226376 45.972459 12.226376 45.972459 12.226376C45.196721 10.998124 44.130338 10.07374 42.772779 9.459634C41.447562 8.8131862 40.044524 8.4914636 38.5577 8.4914636C36.715341 8.4914636 35.098869 8.8618497 33.708989 9.6052414C32.31913 10.316352 31.155419 11.270518 30.218079 12.466449C29.31306 13.662381 28.617022 15.054437 28.132201 16.638245C27.679681 18.189712 27.455265 19.806184 27.455265 21.486956C27.455265 23.232351 27.679681 24.912398 28.132201 26.528507C28.617022 28.144637 29.31306 29.581407 30.218079 30.841981C31.155419 32.070234 32.334021 33.058172 33.756222 33.801584C35.178403 34.512674 36.828627 34.868129 38.703328 34.868129C40.351779 34.868129 41.822281 34.576209 43.115176 33.994424C44.440393 33.380277 45.506797 32.392359 46.314852 31.034821C46.314852 31.034821 46.409362 31.034821 46.409362 31.034821C46.409362 31.034821 46.409362 34.238426 46.409362 34.238426C46.409362 34.238426 52.95432 34.238426 52.95432 34.238426C52.95432 34.238426 52.95432 -0.37948608 52.95432 -0.37948608C52.95432 -0.37948608 46.070894 -0.37948608 46.070894 -0.37948608C46.070894 -0.37948608 46.070793 -0.37948608 46.070793 -0.37948608M58.25948 -0.37948608C58.25948 -0.37948608 58.25948 5.2917879 58.25948 5.2917879C58.25948 5.2917879 65.142907 5.2917879 65.142907 5.2917879C65.142907 5.2917879 65.142907 -0.37948608 65.142907 -0.37948608C65.142907 -0.37948608 58.25948 -0.37948608 58.25948 -0.37948608C58.25948 -0.37948608 58.25948 -0.37948608 58.25948 -0.37948608M12.267561 8.4914636C10.360539 8.4914636 8.616958 8.8320269 7.0331499 9.5107961C5.4816833 10.189565 4.1382906 11.124931 3.0069818 12.320842C1.8757133 13.484452 1.0039227 14.876508 0.38979629 16.492617C-0.22433011 18.108747 -0.53114142 19.852328 -0.53114142 21.727029C-0.53114142 23.666352 -0.23924147 25.443706 0.34256354 27.059815C0.95668994 28.675944 1.8096399 30.068001 2.9086072 31.23159C4.0075744 32.3952 5.3509671 33.300743 6.9347551 33.947191C8.5185632 34.561317 10.295897 34.868129 12.267561 34.868129C15.111923 34.868129 17.536652 34.220754 19.540618 32.927858C21.544624 31.634963 23.030037 29.483334 23.999699 26.477345C23.999699 26.477345 17.938815 26.477345 17.938815 26.477345C17.712565 27.253078 17.098943 27.99776 16.09694 28.70885C15.094957 29.387619 13.901423 29.728183 12.511564 29.728183C10.57222 29.728183 9.0828574 29.226758 8.0485531 28.224775C7.0142286 27.222772 6.4492492 25.60632 6.3522851 23.376064C6.3522851 23.376064 24.436561 23.376064 24.436561 23.376064C24.565726 21.436721 24.404921 19.576992 23.952486 17.799256C23.499967 16.021519 22.755285 14.438799 21.720961 13.04894C20.718978 11.65906 19.428158 10.558904 17.84437 9.750869C16.260562 8.9104728 14.400833 8.4914636 12.267561 8.4914636C12.267561 8.4914636 12.267561 8.4914636 12.267561 8.4914636M107.34086 8.4914636C105.43384 8.4914636 103.69024 8.8320269 102.10645 9.5107961C100.55499 10.189565 99.211593 11.124931 98.080304 12.320842C96.949016 13.484452 96.077225 14.876508 95.463099 16.492617C94.848972 18.108747 94.542161 19.852328 94.542161 21.727029C94.542161 23.666352 94.830132 25.443706 95.411937 27.059815C96.026063 28.675944 96.882942 30.068001 97.98191 31.23159C99.080877 32.3952 100.42427 33.300743 102.00806 33.947191C103.59187 34.561317 105.3692 34.868129 107.34086 34.868129C110.18523 34.868129 112.60993 34.220754 114.61392 32.927858C116.61791 31.634963 118.10332 29.483334 119.073 26.477345C119.073 26.477345 113.01212 26.477345 113.01212 26.477345C112.78587 27.253078 112.17225 27.99776 111.17024 28.70885C110.16826 29.387619 108.97473 29.728183 107.58487 29.728183C105.64552 29.728183 104.15616 29.226758 103.12186 28.224775C102.08755 27.222772 101.52257 25.60632 101.42559 23.376064C101.42559 23.376064 119.50986 23.376064 119.50986 23.376064C119.63903 21.436721 119.47826 19.576992 119.02579 17.799256C118.57327 16.021519 117.82859 14.438799 116.79428 13.04894C115.79228 11.65906 114.50146 10.558904 112.91767 9.750869C111.33386 8.9104728 109.47414 8.4914636 107.34086 8.4914636C107.34086 8.4914636 107.34086 8.4914636 107.34086 8.4914636M138.23565 8.4914636C137.36295 8.4914636 136.52095 8.6224417 135.71291 8.8810934C134.90484 9.1396644 134.14526 9.5100505 133.43417 9.9948712C132.72306 10.447391 132.09453 11.01237 131.54506 11.691139C130.99558 12.337587 130.55771 13.048516 130.2345 13.82425C130.2345 13.82425 130.14 13.82425 130.14 13.82425C130.14 13.82425 130.14 9.1723284 130.14 9.1723284C130.14 9.1723284 123.59504 9.1723284 123.59504 9.1723284C123.59504 9.1723284 123.59504 34.238426 123.59504 34.238426C123.59504 34.238426 130.47847 34.238426 130.47847 34.238426C130.47847 34.238426 130.47847 22.939202 130.47847 22.939202C130.47847 21.807913 130.59071 20.75642 130.81694 19.786759C131.04321 18.817077 131.41357 17.979038 131.93071 17.267948C132.4802 16.524516 133.19508 15.940716 134.06777 15.520518C134.94047 15.10032 136.00688 14.890815 137.26745 14.890815C137.68765 14.890815 138.12157 14.924665 138.57409 14.989145C139.02661 15.021585 139.41581 15.070155 139.73903 15.134833C139.73903 15.134833 139.73903 8.735482 139.73903 8.735482C139.18954 8.5738751 138.68814 8.4914797 138.23562 8.4914797C138.23562 8.4914797 138.23566 8.4914596 138.23566 8.4914596M152.80934 8.4914596C151.4518 8.4914596 150.12725 8.6224377 148.83435 8.8810894C147.54146 9.107339 146.37775 9.5263684 145.34342 10.140495C144.30912 10.7223 143.47108 11.530516 142.82461 12.56484C142.21051 13.599165 141.90367 14.923717 141.90367 16.539846C141.90367 17.638793 142.12809 18.578088 142.58061 19.353821C143.03313 20.097253 143.63184 20.725787 144.37527 21.24293C145.11866 21.72777 145.95672 22.131888 146.89408 22.455122C147.86376 22.746015 148.85168 23.004183 149.85367 23.230433C152.31017 23.747595 154.21856 24.263911 155.5761 24.781073C156.96596 25.298235 157.65805 26.076669 157.65805 27.110973C157.65805 27.72512 157.51216 28.241435 157.22121 28.661613C156.9303 29.04947 156.55993 29.371213 156.10741 29.629784C155.68723 29.856054 155.20465 30.035756 154.65516 30.165041C154.138 30.261961 153.63658 30.310729 153.15174 30.310729C152.47297 30.310729 151.81068 30.228319 151.16425 30.066707C150.55011 29.9051 150.00004 29.661843 149.51522 29.338629C149.03038 28.983074 148.62624 28.549133 148.30303 28.031991C148.01213 27.482488 147.86618 26.835113 147.86618 26.091721C147.86618 26.091721 141.3212 26.091721 141.3212 26.091721C141.3859 27.772473 141.75619 29.179441 142.43498 30.310729C143.14607 31.409697 144.0367 32.296399 145.10335 32.975148C146.20232 33.653937 147.44449 34.14045 148.83435 34.431343C150.22421 34.722255 151.64607 34.868205 153.10057 34.868205C154.52276 34.868205 155.91483 34.722316 157.27237 34.431343C158.66223 34.172772 159.88947 33.705099 160.95612 33.02631C162.02275 32.347561 162.87965 31.456909 163.52609 30.357942C164.20486 29.226673 164.54543 27.838547 164.54543 26.190116C164.54543 25.026506 164.31708 24.053479 163.86456 23.277726C163.41204 22.469671 162.81331 21.807385 162.0699 21.290223C161.32649 20.740759 160.46961 20.306819 159.49993 19.983605C158.56259 19.660371 157.59351 19.383362 156.59151 19.157112C155.62182 18.930843 154.66764 18.721338 153.73028 18.52741C152.79294 18.333562 151.9549 18.123977 151.21147 17.897707C150.50038 17.639116 149.91656 17.317393 149.46406 16.929536C149.01154 16.54166 148.78712 16.040255 148.78712 15.426109C148.78712 14.908967 148.91427 14.504848 149.1728 14.213936C149.43137 13.890722 149.74213 13.647465 150.09769 13.485838C150.48556 13.324231 150.90457 13.226925 151.35709 13.194603C151.80961 13.129923 152.22862 13.096273 152.6165 13.096273C153.84475 13.096273 154.91116 13.33953 155.81617 13.824371C156.72119 14.27689 157.22262 15.167521 157.31958 16.492738C157.31958 16.492738 163.86456 16.492738 163.86456 16.492738C163.7354 14.941252 163.3312 13.665343 162.65239 12.66336C162.00592 11.629056 161.18279 10.801979 160.18079 10.187832C159.1788 9.5737261 158.03 9.1397853 156.7371 8.8812143C155.47655 8.6226432 154.16689 8.4915845 152.80933 8.4915845C152.80933 8.4915845 152.80933 8.4914636 152.80933 8.4914636M180.16204 8.4914636C178.25502 8.4914636 176.50751 8.8320269 174.9237 9.5107961C173.37224 10.189565 172.03277 11.124931 170.90148 12.320842C169.7702 13.484452 168.89841 14.876508 168.28428 16.492617C167.67015 18.108747 167.35939 19.852328 167.35939 21.727029C167.35939 23.666352 167.65131 25.443706 168.23312 27.059815C168.84724 28.675944 169.70412 30.068001 170.80309 31.23159C171.90204 32.3952 173.24545 33.300743 174.82926 33.947191C176.41305 34.561317 178.19038 34.868129 180.16204 34.868129C183.00643 34.868129 185.43113 34.220754 187.43512 32.927858C189.43911 31.634963 190.92452 29.483334 191.8942 26.477345C191.8942 26.477345 185.8333 26.477345 185.8333 26.477345C185.60705 27.253078 184.99341 27.99776 183.99142 28.70885C182.98944 29.387619 181.79198 29.728183 180.40212 29.728183C178.46277 29.728183 176.97734 29.226758 175.94304 28.224775C174.90871 27.222772 174.34373 25.60632 174.24677 23.376064C174.24677 23.376064 192.33104 23.376064 192.33104 23.376064C192.46021 21.436721 192.29944 19.576992 191.84697 17.799256C191.39445 16.021519 190.64977 14.438799 189.61546 13.04894C188.61346 11.65906 187.31871 10.558904 185.73492 9.750869C184.15111 8.9104728 182.29532 8.4914636 180.16204 8.4914636C180.16204 8.4914636 180.16204 8.4914636 180.16204 8.4914636M58.259476 9.1723284C58.259476 9.1723284 58.259476 34.238426 58.259476 34.238426C58.259476 34.238426 65.142903 34.238426 65.142903 34.238426C65.142903 34.238426 65.142903 9.1723284 65.142903 9.1723284C65.142903 9.1723284 58.259476 9.1723284 58.259476 9.1723284C58.259476 9.1723284 58.259476 9.1723284 58.259476 9.1723284M68.189092 9.1723284C68.189092 9.1723284 76.768787 34.238426 76.768787 34.238426C76.768787 34.238426 84.431493 34.238426 84.431493 34.238426C84.431493 34.238426 92.916742 9.1723284 92.916742 9.1723284C92.916742 9.1723284 86.080528 9.1723284 86.080528 9.1723284C86.080528 9.1723284 80.794955 26.284505 80.794955 26.284505C80.794955 26.284505 80.696615 26.284505 80.696615 26.284505C80.696615 26.284505 75.411062 9.1723284 75.411062 9.1723284C75.411062 9.1723284 68.189148 9.1723284 68.189148 9.1723284C68.189148 9.1723284 68.189087 9.1723284 68.189087 9.1723284M12.074701 13.678642C13.755473 13.678642 14.99763 14.131404 15.805705 15.036442C16.646081 15.941461 17.229921 17.266013 17.553135 19.011428C17.553135 19.011428 6.3522851 19.011428 6.3522851 19.011428C6.3847271 18.526587 6.4820542 17.97654 6.6435201 17.362393C6.8373678 16.748287 7.1442798 16.168396 7.5644578 15.618912C8.0169773 15.069429 8.6007973 14.616668 9.3118879 14.261112C10.0553 13.873256 10.975754 13.678642 12.074701 13.678642C12.074701 13.678642 12.074701 13.678642 12.074701 13.678642M40.399535 13.678642C41.530804 13.678642 42.466149 13.906988 43.209581 14.359507C43.952993 14.812006 44.551724 15.410758 45.004224 16.15415C45.489065 16.86526 45.829628 17.703299 46.023556 18.672961C46.217404 19.610321 46.314791 20.598239 46.314791 21.632563C46.314791 22.666888 46.217461 23.665788 46.023556 24.63547C45.829709 25.605151 45.503976 26.480871 45.051457 27.256605C44.598937 28.000016 43.985314 28.594798 43.209581 29.047318C42.466149 29.499837 41.530804 29.728183 40.399535 29.728183C39.332889 29.728183 38.412435 29.499837 37.636702 29.047318C36.89329 28.562477 36.260827 27.948854 35.743665 27.205442C35.258824 26.429689 34.903369 25.557898 34.677099 24.588237C34.45085 23.618575 34.338632 22.649458 34.338632 21.679796C34.338632 20.645472 34.435962 19.657534 34.629867 18.720193C34.856116 17.750532 35.1967 16.897582 35.649199 16.15415C36.13406 15.410758 36.762594 14.812006 37.538307 14.359507C38.314061 13.906988 39.268247 13.678642 40.399535 13.678642C40.399535 13.678642 40.399535 13.678642 40.399535 13.678642M107.14802 13.678642C108.82878 13.678642 110.07093 14.131404 110.87901 15.036442C111.71938 15.941461 112.3032 17.266013 112.62644 19.011428C112.62644 19.011428 101.42559 19.011428 101.42559 19.011428C101.45799 18.526587 101.55516 17.97654 101.71682 17.362393C101.91067 16.748287 102.21758 16.168396 102.63776 15.618912C103.09028 15.069429 103.6741 14.616668 104.38519 14.261112C105.12862 13.873256 106.04906 13.678642 107.14802 13.678642C107.14802 13.678642 107.14802 13.678642 107.14802 13.678642M179.96525 13.678642C181.64603 13.678642 182.89213 14.131404 183.70019 15.036442C184.54056 15.941461 185.12045 17.266013 185.44367 19.011428C185.44367 19.011428 174.24677 19.011428 174.24677 19.011428C174.27917 18.526587 174.37654 17.97654 174.538 17.362393C174.73185 16.748287 175.03876 16.168396 175.45896 15.618912C175.91146 15.069429 176.49135 14.616668 177.20244 14.261112C177.94585 13.873256 178.86629 13.678642 179.96525 13.678642C179.96525 13.678642 179.96525 13.678642 179.96525 13.678642"
         style="font-style:normal;font-variant:normal;font-weight:bold;font-stretch:normal;font-size:medium;line-height:81.00000024%;font-family:'Helvetica Neue';-inkscape-font-specification:'Helvetica Neue Bold';text-align:end;letter-spacing:0px;word-spacing:0px;text-anchor:end;fill:#a6a3c1;fill-opacity:1;stroke:none;stroke-width:0.5;stroke-linecap:butt;stroke-linejoin:miter;stroke-miterlimit:4;stroke-dasharray:none;stroke-opacity:1" />
      <path
         id="blaa"
         d="M-29.08424 -5.1652267C-29.08424 -5.1652267 -29.08424 7.7869824 -29.08424 7.7869824C-29.08424 7.7869824 -29.08424 18.582445 -29.08424 18.582445C-29.08424 18.582445 -29.08424 38.012713 -29.08424 38.012713C-29.08424 38.012713 195.44808 38.012713 195.44808 38.012713C195.44808 38.012713 195.44808 7.7869824 195.44808 7.7869824C195.44808 7.7869824 67.350812 7.7869824 67.350812 7.7869824C67.350812 7.7869824 67.350812 -5.1652267 67.350812 -5.1652267C67.350812 -5.1652267 -29.08424 -5.1652267 -29.08424 -5.1652267C-29.08424 -5.1652267 -29.08424 -5.1652267 -29.08424 -5.1652267"
         style="color:#000000;display:inline;overflow:visible;visibility:visible;opacity:0;fill:#000000;fill-opacity:1;fill-rule:nonzero;stroke:none;stroke-width:0.5;stroke-linecap:round;stroke-linejoin:round;stroke-miterlimit:4;stroke-dasharray:none;stroke-dashoffset:0;stroke-opacity:1;marker:none;marker-start:none;marker-mid:none;marker-end:none;enable-background:accumulate" />
    </g>
    <path
       id="path4815"
       style="font-style:normal;font-variant:normal;font-weight:bold;font-stretch:normal;font-size:medium;line-height:81.00000024%;font-family:'Helvetica Neue';-inkscape-font-specification:'Helvetica Neue Bold';text-align:end;letter-spacing:0px;word-spacing:0px;text-anchor:end;fill:#635c82;fill-opacity:1;stroke:none;stroke-width:1px;stroke-linecap:butt;stroke-linejoin:miter;stroke-opacity:1"
       d="M76.347427 -17.371788C76.347427 -17.371788 76.347427 -26.484845 76.347427 -26.484845C76.347427 -26.484845 84.145665 -26.484845 84.145665 -26.484845C85.777855 -26.484845 87.001997 -26.122137 87.818091 -25.396719C88.634186 -24.701527 89.042234 -23.568062 89.042234 -21.996324C89.042234 -20.364135 88.634186 -19.185332 87.818091 -18.459914C87.001997 -17.734496 85.777855 -17.371788 84.145665 -17.371788C84.145665 -17.371788 76.347427 -17.371788 76.347427 -17.371788C76.347427 -17.371788 76.347427 -17.371788 76.347427 -17.371788M69.229267 -32.016154C69.229267 -32.016154 69.229267 0.35560335 69.229267 0.35560335C69.229267 0.35560335 76.347427 0.35560335 76.347427 0.35560335C76.347427 0.35560335 76.347427 -12.293865 76.347427 -12.293865C76.347427 -12.293865 83.465586 -12.293865 83.465586 -12.293865C85.248904 -12.293865 86.533498 -11.90093 87.319367 -11.115061C88.105236 -10.329192 88.619073 -9.0899375 88.860879 -7.3972966C89.042234 -6.0975901 89.178249 -4.7374323 89.268926 -3.3168229C89.359606 -1.8962136 89.60141 -0.67207149 89.994344 0.35560335C89.994344 0.35560335 97.112504 0.35560335 97.112504 0.35560335C96.780021 -0.09778261 96.523102 -0.64184576 96.341747 -1.2765861C96.190619 -1.9415522 96.069716 -2.636744 95.979039 -3.3621615C95.918589 -4.0875791 95.873249 -4.7978837 95.843023 -5.4930755C95.812793 -6.1882673 95.782573 -6.7927819 95.752343 -7.3066194C95.691893 -8.1227141 95.570988 -8.9388088 95.389634 -9.7549035C95.238505 -10.570998 94.981587 -11.311529 94.618878 -11.976495C94.256169 -12.671687 93.78767 -13.261088 93.213381 -13.7447C92.639092 -14.258537 91.913675 -14.636359 91.037129 -14.878165C91.037129 -14.878165 91.037129 -14.968845 91.037129 -14.968845C92.850673 -15.694263 94.150379 -16.752163 94.936248 -18.142547C95.752343 -19.53293 96.16039 -21.180233 96.16039 -23.084454C96.16039 -24.323709 95.933697 -25.472286 95.480311 -26.530187C95.057151 -27.618313 94.422411 -28.570424 93.57609 -29.386519C92.759995 -30.202613 91.762546 -30.837354 90.583743 -31.29074C89.435165 -31.774351 88.135459 -32.016157 86.684624 -32.016157C86.684624 -32.016157 69.229264 -32.016157 69.229264 -32.016157C69.229264 -32.016157 69.229264 -32.016157 69.229264 -32.016157" />
    <path
       id="path4817"
       style="font-style:normal;font-variant:normal;font-weight:bold;font-stretch:normal;font-size:medium;line-height:81.00000024%;font-family:'Helvetica Neue';-inkscape-font-specification:'Helvetica Neue Bold';text-align:end;letter-spacing:0px;word-spacing:0px;text-anchor:end;fill:#635c82;fill-opacity:1;stroke:none;stroke-width:1px;stroke-linecap:butt;stroke-linejoin:miter;stroke-opacity:1"
       d="M100.95282 -15.875614C100.95282 -15.875614 107.3909 -15.875614 107.3909 -15.875614C107.51181 -17.145095 107.93497 -18.051867 108.66039 -18.59593C109.3858 -19.139993 110.38325 -19.412024 111.65273 -19.412024C112.22702 -19.412024 112.75597 -19.366684 113.23958 -19.276009C113.75341 -19.215559 114.19169 -19.064429 114.55439 -18.822623C114.94733 -18.611043 115.24959 -18.293672 115.46117 -17.870512C115.70297 -17.477578 115.82388 -16.933515 115.82388 -16.238323C115.85408 -15.573357 115.65763 -15.059519 115.23447 -14.696811C114.81131 -14.364327 114.23702 -14.107409 113.51161 -13.926054C112.7862 -13.7447 111.95499 -13.608684 111.01799 -13.518007C110.08099 -13.427327 109.12888 -13.306427 108.16166 -13.155298C107.19444 -13.00417 106.22721 -12.792589 105.25999 -12.520558C104.32299 -12.278752 103.47667 -11.90093 102.72103 -11.387093C101.99561 -10.873256 101.3911 -10.178064 100.90749 -9.3015176C100.4541 -8.4551971 100.22741 -7.3670708 100.22741 -6.0371387C100.22741 -4.8281095 100.42387 -3.7853217 100.81681 -2.9087756C101.23997 -2.0322294 101.81426 -1.3068118 102.53967 -0.73252295C103.26509 -0.15823407 104.11141 0.26492616 105.07864 0.53695774C106.04586 0.80898931 107.08865 0.9450051 108.207 0.9450051C109.65783 0.9450051 111.07844 0.73342499 112.46883 0.31026476C113.8592 -0.11289547 115.06823 -0.85342587 116.09591 -1.9113264C116.12611 -1.5183919 116.17151 -1.1254574 116.23192 -0.73252295C116.32262 -0.36981418 116.42839 -0.00710541 116.54929 0.35560335C116.54929 0.35560335 123.07804 0.35560335 123.07804 0.35560335C122.77578 -0.12800834 122.5642 -0.85342587 122.4433 -1.8206493C122.3224 -2.7878726 122.26195 -3.8004346 122.26195 -4.8583352C122.26195 -4.8583352 122.26195 -17.054417 122.26195 -17.054417C122.26195 -18.475027 121.94458 -19.608492 121.30984 -20.454812C120.67509 -21.331358 119.859 -22.011437 118.86155 -22.495049C117.8641 -22.978661 116.76087 -23.296031 115.55184 -23.44716C114.34281 -23.628514 113.1489 -23.719191 111.9701 -23.719191C110.6704 -23.719191 109.37069 -23.583175 108.07098 -23.311144C106.8015 -23.069338 105.65292 -22.646178 104.62525 -22.041663C103.59758 -21.437148 102.75125 -20.636167 102.08629 -19.638717C101.42132 -18.641268 101.0435 -17.386901 100.95282 -15.875614C100.95282 -15.875614 100.95282 -15.875614 100.95282 -15.875614M115.82388 -11.115061C115.82388 -11.115061 115.82388 -8.7121158 115.82388 -8.7121158C115.82388 -8.3494071 115.77858 -7.8657954 115.68786 -7.2612808C115.62736 -6.6567662 115.43094 -6.0522515 115.09846 -5.4477369C114.76597 -4.873448 114.25214 -4.3747235 113.55695 -3.9515633C112.86176 -3.528403 111.87943 -3.3168229 110.60994 -3.3168229C110.09611 -3.3168229 109.59738 -3.3621619 109.11377 -3.4528387C108.63016 -3.5435157 108.207 -3.6946446 107.84429 -3.9062247C107.48158 -4.1480305 107.19444 -4.4654007 106.98286 -4.8583352C106.77128 -5.2512697 106.66549 -5.7348814 106.66549 -6.3091703C106.66549 -6.9136849 106.77128 -7.4124094 106.98286 -7.8053439C107.19444 -8.1982784 107.46647 -8.5156486 107.79895 -8.7574544C108.16166 -9.029486 108.56971 -9.2410661 109.02309 -9.3921948C109.50671 -9.5433234 109.99032 -9.6642264 110.47393 -9.7549035C110.98777 -9.8455805 111.5016 -9.9211451 112.01544 -9.9815965C112.52928 -10.0420475 113.01288 -10.117612 113.46627 -10.20829C113.94988 -10.29897 114.38815 -10.404757 114.78109 -10.52566C115.20425 -10.676788 115.55184 -10.873256 115.82388 -11.115061C115.82388 -11.115061 115.82388 -11.115061 115.82388 -11.115061" />
    <path
       id="path4819"
       style="font-style:normal;font-variant:normal;font-weight:bold;font-stretch:normal;font-size:medium;line-height:81.00000024%;font-family:'Helvetica Neue';-inkscape-font-specification:'Helvetica Neue Bold';text-align:end;letter-spacing:0px;word-spacing:0px;text-anchor:end;fill:#635c82;fill-opacity:1;stroke:none;stroke-width:1px;stroke-linecap:butt;stroke-linejoin:miter;stroke-opacity:1"
       d="M143.80982 -11.432432C143.80982 -10.465208 143.71912 -9.5282106 143.53779 -8.6214386C143.35643 -7.7146667 143.05418 -6.898572 142.63102 -6.1731545C142.20786 -5.4779627 141.63357 -4.9187866 140.90815 -4.4956264C140.21296 -4.0724662 139.33641 -3.8608861 138.27851 -3.8608861C137.28106 -3.8608861 136.41963 -4.0724662 135.69421 -4.4956264C134.99902 -4.9490124 134.40962 -5.5233013 133.92601 -6.2184931C133.47262 -6.9439106 133.14014 -7.7600053 132.92856 -8.6667772C132.71698 -9.5735492 132.61119 -10.480321 132.61119 -11.387093C132.61119 -12.354316 132.70189 -13.276201 132.88322 -14.152747C133.0948 -15.059519 133.41217 -15.860501 133.83533 -16.555693C134.28872 -17.250885 134.87812 -17.810061 135.60353 -18.233221C136.32895 -18.656381 137.22061 -18.867961 138.27851 -18.867961C139.33641 -18.867961 140.21296 -18.656381 140.90815 -18.233221C141.60334 -17.810061 142.16252 -17.250885 142.58568 -16.555693C143.03906 -15.890727 143.35643 -15.104858 143.53779 -14.198086C143.71914 -13.32154 143.80982 -12.399655 143.80982 -11.432432C143.80982 -11.432432 143.80982 -11.432432 143.80982 -11.432432M143.90052 -2.636744C143.90052 -2.636744 143.90052 0.35560335 143.90052 0.35560335C143.90052 0.35560335 150.02123 0.35560335 150.02123 0.35560335C150.02123 0.35560335 150.02123 -32.016154 150.02123 -32.016154C150.02123 -32.016154 143.58315 -32.016154 143.58315 -32.016154C143.58315 -32.016154 143.58315 -20.228119 143.58315 -20.228119C143.58315 -20.228119 143.49245 -20.228119 143.49245 -20.228119C142.76703 -21.376697 141.76958 -22.23813 140.5001 -22.812419C139.26085 -23.416934 137.94603 -23.719191 136.55565 -23.719191C134.83278 -23.719191 133.32149 -23.371595 132.02179 -22.676403C130.72208 -22.011437 129.63395 -21.119778 128.75741 -20.001426C127.91109 -18.883074 127.26123 -17.583368 126.80785 -16.102307C126.38469 -14.651472 126.17311 -13.140185 126.17311 -11.568447C126.17311 -9.9362579 126.38469 -8.3645199 126.80785 -6.8532334C127.26123 -5.3419469 127.91109 -3.9969019 128.75741 -2.8180984C129.63395 -1.6695206 130.73719 -0.74763581 132.06712 -0.05244401C133.39706 0.61252206 134.93857 0.9450051 136.69166 0.9450051C138.23317 0.9450051 139.60844 0.67297353 140.81747 0.12891037C142.05673 -0.44537851 143.05418 -1.3672633 143.80982 -2.636744C143.80982 -2.636744 143.90052 -2.636744 143.90052 -2.636744C143.90052 -2.636744 143.90052 -2.636744 143.90052 -2.636744" />
    <path
       id="path4821"
       style="font-style:normal;font-variant:normal;font-weight:bold;font-stretch:normal;font-size:medium;line-height:81.00000024%;font-family:'Helvetica Neue';-inkscape-font-specification:'Helvetica Neue Bold';text-align:end;letter-spacing:0px;word-spacing:0px;text-anchor:end;fill:#635c82;fill-opacity:1;stroke:none;stroke-width:1px;stroke-linecap:butt;stroke-linejoin:miter;stroke-opacity:1"
       d="M161.4182 -26.711538C161.4182 -26.711538 161.4182 -32.016154 161.4182 -32.016154C161.4182 -32.016154 154.98012 -32.016154 154.98012 -32.016154C154.98012 -32.016154 154.98012 -26.711538 154.98012 -26.711538C154.98012 -26.711538 161.4182 -26.711538 161.4182 -26.711538C161.4182 -26.711538 161.4182 -26.711538 161.4182 -26.711538M154.98012 -23.084451C154.98012 -23.084451 154.98012 0.35560335 154.98012 0.35560335C154.98012 0.35560335 161.4182 0.35560335 161.4182 0.35560335C161.4182 0.35560335 161.4182 -23.084451 161.4182 -23.084451C161.4182 -23.084451 154.98012 -23.084451 154.98012 -23.084451C154.98012 -23.084451 154.98012 -23.084451 154.98012 -23.084451" />
    <path
       id="path4823"
       style="font-style:normal;font-variant:normal;font-weight:bold;font-stretch:normal;font-size:medium;line-height:81.00000024%;font-family:'Helvetica Neue';-inkscape-font-specification:'Helvetica Neue Bold';text-align:end;letter-spacing:0px;word-spacing:0px;text-anchor:end;fill:#635c82;fill-opacity:1;stroke:none;stroke-width:1px;stroke-linecap:butt;stroke-linejoin:miter;stroke-opacity:1"
       d="M172.20029 -11.341754C172.20029 -12.278752 172.29099 -13.200637 172.47232 -14.107409C172.65367 -15.014181 172.95593 -15.815163 173.37909 -16.510354C173.83247 -17.205546 174.42188 -17.764722 175.14729 -18.187882C175.87271 -18.641268 176.77948 -18.867961 177.86761 -18.867961C178.95574 -18.867961 179.86251 -18.641268 180.58793 -18.187882C181.34357 -17.764722 181.93297 -17.205546 182.35613 -16.510354C182.80952 -15.815163 183.12689 -15.014181 183.30824 -14.107409C183.4896 -13.200637 183.58027 -12.278752 183.58027 -11.341754C183.58027 -10.404757 183.48957 -9.482872 183.30824 -8.5761001C183.12689 -7.6995539 182.80952 -6.898572 182.35613 -6.1731545C181.93297 -5.4779627 181.34357 -4.9187866 180.58793 -4.4956264C179.86251 -4.0724662 178.95574 -3.8608861 177.86761 -3.8608861C176.77948 -3.8608861 175.87271 -4.0724662 175.14729 -4.4956264C174.42188 -4.9187866 173.83247 -5.4779627 173.37909 -6.1731545C172.95593 -6.898572 172.65367 -7.6995539 172.47232 -8.5761001C172.29096 -9.482872 172.20029 -10.404757 172.20029 -11.341754C172.20029 -11.341754 172.20029 -11.341754 172.20029 -11.341754M165.7622 -11.341754C165.7622 -9.4677591 166.04935 -7.7751182 166.62364 -6.2638317C167.19793 -4.7525451 168.01402 -3.4528387 169.07192 -2.3647124C170.12982 -1.3068118 171.3993 -0.4907171 172.88036 0.08357178C174.36143 0.65786066 176.02384 0.9450051 177.86761 0.9450051C179.71138 0.9450051 181.37379 0.65786066 182.85486 0.08357178C184.36614 -0.4907171 185.65074 -1.3068118 186.70864 -2.3647124C187.76654 -3.4528387 188.58263 -4.7525451 189.15692 -6.2638317C189.73121 -7.7751182 190.01835 -9.4677591 190.01835 -11.341754C190.01835 -13.21575 189.73121 -14.908391 189.15692 -16.419677C188.58263 -17.961189 187.76654 -19.260896 186.70864 -20.318796C185.65074 -21.406923 184.36614 -22.23813 182.85486 -22.812419C181.37379 -23.416934 179.71138 -23.719191 177.86761 -23.719191C176.02384 -23.719191 174.36143 -23.416934 172.88036 -22.812419C171.3993 -22.23813 170.12982 -21.406923 169.07192 -20.318796C168.01402 -19.260896 167.19793 -17.961189 166.62364 -16.419677C166.04935 -14.908391 165.7622 -13.21575 165.7622 -11.341754C165.7622 -11.341754 165.7622 -11.341754 165.7622 -11.341754" />
    <rect
       inkscape:label="#rect4251"
       y="0"
       x="0"
       height="3.3928604"
       width="3.0357132"
       id="thePoint"
       style="color:#000000;display:none;overflow:visible;visibility:visible;opacity:1;fill:#ff0000;fill-opacity:1;fill-rule:nonzero;stroke:#000000;stroke-width:0.5;stroke-linecap:round;stroke-linejoin:round;stroke-miterlimit:4;stroke-dasharray:none;stroke-dashoffset:0;stroke-opacity:1;marker:none;marker-start:none;marker-mid:none;marker-end:none;enable-background:accumulate" />
    <circle
       style="color:#000000;display:inline;overflow:visible;visibility:visible;opacity:0;fill:#ff0000;fill-opacity:1;fill-rule:nonzero;stroke:#000000;stroke-width:1.28969753;stroke-linecap:round;stroke-linejoin:round;stroke-miterlimit:4;stroke-dasharray:none;stroke-dashoffset:0;stroke-opacity:1;marker:none;marker-start:none;marker-mid:none;marker-end:none;enable-background:accumulate"
       id="volumeKnobGlass"
       cx="15.881867"
       cy="115.34487"
       r="55.272755"
       inkscape:label="#path4166" />
  </g>
</svg>
