<?xml version="1.0" encoding="UTF-8" standalone="no"?>
<!-- Created with Inkscape (http://www.inkscape.org/) -->

<svg
   xmlns:dc="http://purl.org/dc/elements/1.1/"
   xmlns:cc="http://creativecommons.org/ns#"
   xmlns:rdf="http://www.w3.org/1999/02/22-rdf-syntax-ns#"
   xmlns:svg="http://www.w3.org/2000/svg"
   xmlns="http://www.w3.org/2000/svg"
   xmlns:sodipodi="http://sodipodi.sourceforge.net/DTD/sodipodi-0.dtd"
   xmlns:inkscape="http://www.inkscape.org/namespaces/inkscape"
   width="304.10678"
   height="290.77267"
   viewBox="0 0 304.10678 290.77267"
   id="svg2"
   version="1.1"
   inkscape:version="0.91 r13725"
   sodipodi:docname="radioControl.svg">
  <sodipodi:namedview
     id="base"
     pagecolor="#ffffff"
     bordercolor="#666666"
     borderopacity="1.0"
     inkscape:pageopacity="0.0"
     inkscape:pageshadow="2"
     inkscape:zoom="1.979899"
     inkscape:cx="138.83407"
     inkscape:cy="143.85226"
     inkscape:document-units="px"
     inkscape:current-layer="layer1"
     showgrid="false"
     fit-margin-top="0"
     fit-margin-left="0"
     fit-margin-right="0"
     fit-margin-bottom="0"
     inkscape:window-width="1920"
     inkscape:window-height="1032"
     inkscape:window-x="0"
     inkscape:window-y="0"
     inkscape:window-maximized="1"
     showguides="true"
     inkscape:guide-bbox="true"
     units="px" />
  <defs
     id="defs4">
    <filter
       height="1.1382331"
       y="-0.069116555"
       width="1.0854318"
       x="-0.042715922"
       id="filter4285"
       style="color-interpolation-filters:sRGB"
       inkscape:collect="always">
      <feGaussianBlur
         id="feGaussianBlur4287"
         stdDeviation="1.5031831"
         inkscape:collect="always" />
    </filter>
    <filter
       height="1.1046671"
       y="-0.052333545"
       width="1.1065497"
       x="-0.053274844"
       id="filter4305"
       style="color-interpolation-filters:sRGB"
       inkscape:collect="always">
      <feGaussianBlur
         id="feGaussianBlur4307"
         stdDeviation="0.70265578"
         inkscape:collect="always" />
    </filter>
    <filter
       height="1.3213097"
       y="-0.16065484"
       width="1.0631826"
       x="-0.031591322"
       id="filter4810"
       style="color-interpolation-filters:sRGB"
       inkscape:collect="always">
      <feGaussianBlur
         id="feGaussianBlur4812"
         stdDeviation="1.4926596"
         inkscape:collect="always" />
    </filter>
    <filter
       height="1.1053648"
       y="-0.052682418"
       width="1.1058362"
       x="-0.052918106"
       id="filter4848"
       style="color-interpolation-filters:sRGB"
       inkscape:collect="always">
      <feGaussianBlur
         id="feGaussianBlur4850"
         stdDeviation="1.0512851"
         inkscape:collect="always" />
    </filter>
  </defs>
  <metadata
     id="metadata7">
    <rdf:RDF>
      <cc:Work
         rdf:about="">
        <dc:format>image/svg+xml</dc:format>
        <dc:type
           rdf:resource="http://purl.org/dc/dcmitype/StillImage" />
        <dc:title></dc:title>
      </cc:Work>
    </rdf:RDF>
  </metadata>
  <g
     style="display:inline"
     inkscape:label="back"
     id="layer3"
     inkscape:groupmode="layer"
     transform="translate(76.594473,73.236059)" />
  <g
     inkscape:label="Layer 2"
     id="layer2"
     inkscape:groupmode="layer"
     transform="translate(76.594473,73.236059)">
    <text
       sodipodi:linespacing="125%"
       id="text4234"
       y="61.402557"
       x="214.15234"
       style="font-style:normal;font-weight:normal;font-size:22.5px;line-height:125%;font-family:'Bitstream Vera Sans';letter-spacing:0px;word-spacing:0px;fill:#000000;fill-opacity:1;stroke:none;stroke-width:1px;stroke-linecap:butt;stroke-linejoin:miter;stroke-opacity:1"
       xml:space="preserve"><tspan
         y="61.402557"
         x="214.15234"
         id="tspan4236"
         sodipodi:role="line" /></text>
  </g>
  <g
     style="display:inline"
     id="layer1"
     inkscape:groupmode="layer"
     inkscape:label="Layer 1"
     transform="translate(76.594473,73.236059)">
    <rect
       y="-73.110458"
       x="-76.468872"
       height="290.52148"
       width="303.85559"
       id="rect4208"
       style="color:#000000;display:inline;overflow:visible;visibility:visible;opacity:1;fill:#000000;fill-opacity:1;fill-rule:nonzero;stroke:#000000;stroke-width:0.25120145;stroke-linecap:round;stroke-linejoin:round;stroke-miterlimit:4;stroke-dasharray:none;stroke-dashoffset:0;stroke-opacity:1;marker:none;marker-start:none;marker-mid:none;marker-end:none;enable-background:accumulate" />
    <g
       id="g6191">
      <circle
         inkscape:label="#path6189"
         style="color:#000000;display:inline;overflow:visible;visibility:visible;opacity:1;fill:#000000;fill-opacity:1;fill-rule:nonzero;stroke:#000000;stroke-width:0.59136212;stroke-linecap:round;stroke-linejoin:round;stroke-miterlimit:4;stroke-dasharray:none;stroke-dashoffset:0;stroke-opacity:1;marker:none;marker-start:none;marker-mid:none;marker-end:none;enable-background:accumulate"
         id="volumeKnobBBox"
         cx="46.392857"
         cy="93.586296"
         r="25.132891" />
      <path
         style="color:#000000;display:inline;overflow:visible;visibility:visible;opacity:1;fill:#b7a8f1;fill-opacity:1;fill-rule:nonzero;stroke:none;stroke-width:0.5;stroke-linecap:round;stroke-linejoin:round;stroke-miterlimit:4;stroke-dasharray:none;stroke-dashoffset:0;stroke-opacity:1;marker:none;marker-start:none;marker-mid:none;marker-end:none;filter:url(#filter4848);enable-background:accumulate"
         d="m 11.728361,67.191565 c -22.550309,1.804617 -44.616826,22.993277 -42.241244,46.102105 7.407943,2.59635 36.4331883,1.04712 13.853459,2.46765 -10.725217,-3.31823 -18.725988,3.79465 -12.853814,14.08171 8.634282,31.53785 51.765916,44.59083 76.336574,22.9564 26.772682,-19.70637 22.4554,-65.682298 -7.503195,-80.07837 -8.342544,-4.599692 -18.131812,-6.431351 -27.59178,-5.529495 0,0 0,0 0,0"
         id="volumeKnob-glow"
         inkscape:connector-curvature="0" />
      <path
         style="color:#000000;display:inline;overflow:visible;visibility:visible;opacity:1;fill:#655d84;fill-opacity:1;fill-rule:nonzero;stroke:none;stroke-width:1;stroke-linecap:round;stroke-linejoin:round;stroke-miterlimit:4;stroke-dasharray:none;stroke-dashoffset:0;stroke-opacity:1;marker:none;marker-start:none;marker-mid:none;marker-end:none;enable-background:accumulate"
         d="m -21.079342,92.087088 c -10.454403,16.919882 -8.342342,38.734692 5.163695,53.334802 1.633326,1.75706 3.406772,3.37845 5.30281,4.84817 0,0 13.182604,-21.15755 13.182604,-21.15755 0,0 7.772909,4.84307 7.772909,4.84307 0,0 -13.1971803,21.18092 -13.1971803,21.18092 16.4222253,8.02389 36.0872353,5.13102 49.5030123,-7.28224 C 64.594389,131.24927 65.68243,103.2406 49.078832,85.293456 32.475205,67.345176 4.4655127,66.254666 -13.483274,82.857734 c -2.937596,2.718915 -5.492918,5.823664 -7.596068,9.229354 0,0 0,0 0,0"
         id="volumeKnob"
         inkscape:connector-curvature="0" />
    </g>
    <g
       id="pauseButton"
       inkscape:label="#g4929">
      <path
         id="pauseButton-glow"
         d="m 110.22313,121.36301 c -6.34553,4.04152 -10.782325,11.89352 -3.8965,17.86596 9.86477,13.4786 18.68909,29.53655 32.33718,38.9414 8.89765,-1.5563 18.5129,-7.32653 20.74906,-16.60952 11.87693,0.56873 28.85761,-14.64443 18.40579,-26.19031 -12.60902,-10.98168 -17.98799,-30.09431 -33.42155,-37.521419 -8.87875,2.541679 -16.76098,11.321869 -21.65924,16.269379 -4.56739,1.56074 -8.71783,4.2982 -12.51474,7.24451 0,0 0,0 0,0"
         style="color:#000000;overflow:visible;visibility:visible;opacity:1;fill:#b7a8f1;fill-opacity:1;fill-rule:nonzero;stroke-width:1;stroke-linecap:round;stroke-linejoin:round;stroke-miterlimit:4;stroke-dasharray:none;stroke-dashoffset:0;stroke-opacity:1;marker:none;marker-start:none;marker-mid:none;marker-end:none;filter:url(#filter4305);enable-background:accumulate"
         inkscape:connector-curvature="0" />
      <path
         id="pauseElevens"
         d="m 110.22821,131.73577 c 0,0 29.3379,39.05723 29.3379,39.05723 0,0 12.7876,-9.60544 12.7876,-9.60544 0,0 -29.3379,-39.05722 -29.3379,-39.05722 0,0 -12.7876,9.60543 -12.7876,9.60543 m 21.65931,-16.26942 c 0,0 29.33788,39.05722 29.33788,39.05722 0,0 12.7876,-9.60543 12.7876,-9.60543 0,0 -29.33788,-39.05723 -29.33788,-39.05723 0,0 -12.7876,9.60544 -12.7876,9.60544"
         style="color:#000000;display:inline;overflow:visible;visibility:visible;opacity:1;fill:#655d84;fill-opacity:1;fill-rule:nonzero;stroke-width:1;stroke-linecap:round;stroke-linejoin:round;stroke-miterlimit:4;stroke-dasharray:none;stroke-dashoffset:0;stroke-opacity:1;marker:none;marker-start:none;marker-mid:none;marker-end:none;enable-background:accumulate"
         inkscape:connector-curvature="0" />
    </g>
    <path
       id="nextButton-glow"
       d="M 32.549919,46.791252 C 21.463484,45.596368 10.936124,49.215839 0.25797818,51.533689 21.732493,63.673834 51.644763,69.224507 60.713369,95.447585 c 9.200309,24.070145 -3.447305,48.852285 -15.132533,69.487695 -2.135871,7.68105 8.061807,8.26051 12.027302,3.82938 C 111.13345,129.25421 163.68412,88.385101 216.8639,48.393054 155.42339,48.127773 93.992603,46.612195 32.549919,46.791252 c 0,0 0,0 0,0"
       style="fill:#b7a8f1;fill-opacity:1;fill-rule:evenodd;stroke:none;stroke-width:0.75210816px;stroke-linecap:butt;stroke-linejoin:miter;stroke-opacity:1;filter:url(#filter4285)"
       inkscape:connector-curvature="0" />
    <path
       style="fill:#655d84;fill-opacity:1;fill-rule:evenodd;stroke:none;stroke-width:1;stroke-linecap:butt;stroke-linejoin:miter;stroke-miterlimit:4;stroke-dasharray:none;stroke-opacity:1"
       d="m 22.999314,54.463308 c 0,0 170.184056,1.77814 170.184056,1.77814 0,0 -136.32493,103.400262 -136.32493,103.400262 33.803731,-53.47259 5.717741,-94.827479 -33.859126,-105.178402 0,0 0,0 0,0"
       id="nextButton"
       inkscape:connector-curvature="0" />
    <g
       id="g4224"
       transform="translate(40.599443,-197.56651)" />
    <g
       inkscape:label="#g4209"
       id="fediverseText">
      <path
         style="font-style:normal;font-variant:normal;font-weight:bold;font-stretch:normal;font-size:medium;line-height:81.00000024%;font-family:'Helvetica Neue';-inkscape-font-specification:'Helvetica Neue Bold';text-align:end;letter-spacing:0px;word-spacing:0px;text-anchor:end;opacity:1;fill:#b7a8f1;fill-opacity:1;stroke:none;stroke-width:1px;stroke-linecap:butt;stroke-linejoin:miter;stroke-opacity:1;filter:url(#filter4810)"
         d="m -31.315746,-0.37948608 c 0,12.88267008 0,25.76534008 0,38.64800908 20.017152,8.009517 10.264537,-13.750732 21.7168854,-14.30606 7.8794047,-2.240673 5.3758276,9.700546 12.1808082,12.224112 7.3855364,5.129669 19.1557384,2.664942 23.6217104,-4.128492 6.729598,11.439734 21.832348,4.529567 32.055818,6.21044 17.536103,7.594578 7.306244,-26.431172 14.69569,-2.723459 5.941552,8.42246 19.525681,0.166242 18.399127,-7.914567 2.960853,12.384812 20.966887,14.410077 28.210687,6.607929 5.14911,11.005672 21.41428,1.655624 14.95935,-11.940735 -0.56379,-4.271057 4.91169,-4.314985 5.02582,-0.236144 -4.94902,1.302689 -1.53986,12.141051 3.59718,14.43595 7.57574,4.794143 19.19183,1.953388 24.11762,-3.183938 8.12205,10.168298 27.34195,5.691082 29.01355,-7.127449 2.35797,-7.430875 -3.80673,-22.1251743 -15.22699,-21.705077 -5.7031,-0.8598817 -11.62615,3.2723182 -14.72719,6.458392 C 161.80763,3.4461645 150.99464,3.0857529 143.76916,6.4134446 137.43707,2.2840859 127.43398,6.8384788 119.56498,5.142231 121.64362,14.954692 115.61943,4.2292729 111.09939,4.850996 106.58373,3.8979384 101.63576,4.6539242 97.804807,7.2989577 93.822506,-3.6710077 77.133712,15.412793 79.260052,7.983772 67.154485,7.4921606 72.615912,-7.3845812 58.259476,-4.4095835 48.200071,-5.792592 39.846566,-4.6520744 40.958389,4.6699439 34.752361,2.7501062 28.150981,8.3852302 25.388994,11.262156 20.314034,3.1968425 7.9081445,2.295753 1.0824693,8.5819795 6.1481204,-8.2027112 -9.3673315,-4.4062788 -21.083066,-4.4095835 c -3.606897,1.2514863 -12.666052,-3.1454507 -10.23268,4.03009742 0,0 0,0 0,0 M -0.38160466,10.049983 c -0.58613736,1.901863 -1.82019344,-0.3558175 0,0 0,0 0,0 0,0 M 40.793094,17.736285 c 5.284808,3.663903 -2.760415,13.138118 -2.404678,3.329546 0.06045,-1.404005 0.401559,-3.818598 2.404678,-3.329546 0,0 0,0 0,0"
         id="fediverseText-glow"
         inkscape:connector-curvature="0" />
      <path
         style="font-style:normal;font-variant:normal;font-weight:bold;font-stretch:normal;font-size:medium;line-height:81.00000024%;font-family:'Helvetica Neue';-inkscape-font-specification:'Helvetica Neue Bold';text-align:end;letter-spacing:0px;word-spacing:0px;text-anchor:end;fill:#a6a3c1;fill-opacity:1;stroke:none;stroke-width:0.5;stroke-linecap:butt;stroke-linejoin:miter;stroke-miterlimit:4;stroke-dasharray:none;stroke-opacity:1"
         d="m -27.285648,-0.37948608 c 0,0 0,34.61791208 0,34.61791208 0,0 7.611544,0 7.611544,0 0,0 0,-14.30606 0,-14.30606 0,0 14.4989,0 14.4989,0 0,0 0,-5.915256 0,-5.915256 0,0 -14.4989,0 -14.4989,0 0,0 0,-7.9972246 0,-7.9972246 0,0 16.7264759,0 16.7264759,0 0,0 0,-6.39937148 0,-6.39937148 0,0 -24.3380199,0 -24.3380199,0 0,0 0,0 0,0 m 73.356437,0 c 0,0 0,12.60586208 0,12.60586208 0,0 -0.09833,0 -0.09833,0 C 45.196721,10.998124 44.130338,10.07374 42.772779,9.459634 41.447562,8.8131862 40.044524,8.4914636 38.5577,8.4914636 c -1.842359,0 -3.458831,0.3703861 -4.848711,1.1137778 -1.389859,0.7111106 -2.55357,1.6652766 -3.49091,2.8612076 -0.905019,1.195932 -1.601057,2.587988 -2.085878,4.171796 -0.45252,1.551467 -0.676936,3.167939 -0.676936,4.848711 0,1.745395 0.224416,3.425442 0.676936,5.041551 0.484821,1.61613 1.180859,3.0529 2.085878,4.313474 0.93734,1.228253 2.115942,2.216191 3.538143,2.959603 1.422181,0.71109 3.072405,1.066545 4.947106,1.066545 1.648451,0 3.118953,-0.29192 4.411848,-0.873705 1.325217,-0.614147 2.391621,-1.602065 3.199676,-2.959603 0,0 0.09451,0 0.09451,0 0,0 0,3.203605 0,3.203605 0,0 6.544958,0 6.544958,0 0,0 0,-34.61791208 0,-34.61791208 0,0 -6.883426,0 -6.883426,0 0,0 -1.01e-4,0 -1.01e-4,0 m 12.188687,0 c 0,0 0,5.67127398 0,5.67127398 0,0 6.883427,0 6.883427,0 0,0 0,-5.67127398 0,-5.67127398 0,0 -6.883427,0 -6.883427,0 0,0 0,0 0,0 M 12.267561,8.4914636 c -1.907022,0 -3.650603,0.3405633 -5.2344111,1.0193325 -1.5514666,0.6787689 -2.8948593,1.6141349 -4.0261681,2.8100459 -1.1312685,1.16361 -2.0030591,2.555666 -2.61718551,4.171775 -0.6141264,1.61613 -0.92093771,3.359711 -0.92093771,5.234412 0,1.939323 0.29189995,3.716677 0.87370496,5.332786 0.6141264,1.616129 1.46707636,3.008186 2.56604366,4.171775 1.0989672,1.16361 2.4423599,2.069153 4.0261479,2.715601 1.5838081,0.614126 3.3611419,0.920938 5.3328059,0.920938 2.844362,0 5.269091,-0.647375 7.273057,-1.940271 2.004006,-1.292895 3.489419,-3.444524 4.459081,-6.450513 0,0 -6.060884,0 -6.060884,0 -0.22625,0.775733 -0.839872,1.520415 -1.841875,2.231505 -1.001983,0.678769 -2.195517,1.019333 -3.585376,1.019333 -1.939344,0 -3.4287066,-0.501425 -4.4630109,-1.503408 -1.0343245,-1.002003 -1.5993039,-2.618455 -1.696268,-4.848711 0,0 18.0842759,0 18.0842759,0 0.129165,-1.939343 -0.03164,-3.799072 -0.484075,-5.576808 C 23.499967,16.021519 22.755285,14.438799 21.720961,13.04894 20.718978,11.65906 19.428158,10.558904 17.84437,9.750869 16.260562,8.9104728 14.400833,8.4914636 12.267561,8.4914636 c 0,0 0,0 0,0 m 95.073299,0 c -1.90702,0 -3.65062,0.3405633 -5.23441,1.0193325 -1.55146,0.6787689 -2.894857,1.6141349 -4.026146,2.8100459 -1.131288,1.16361 -2.003079,2.555666 -2.617205,4.171775 -0.614127,1.61613 -0.920938,3.359711 -0.920938,5.234412 0,1.939323 0.287971,3.716677 0.869776,5.332786 0.614126,1.616129 1.471005,3.008186 2.569973,4.171775 1.098967,1.16361 2.44236,2.069153 4.02615,2.715601 1.58381,0.614126 3.36114,0.920938 5.3328,0.920938 2.84437,0 5.26907,-0.647375 7.27306,-1.940271 2.00399,-1.292895 3.4894,-3.444524 4.45908,-6.450513 0,0 -6.06088,0 -6.06088,0 -0.22625,0.775733 -0.83987,1.520415 -1.84188,2.231505 -1.00198,0.678769 -2.19551,1.019333 -3.58537,1.019333 -1.93935,0 -3.42871,-0.501425 -4.46301,-1.503408 -1.03431,-1.002003 -1.59929,-2.618455 -1.69627,-4.848711 0,0 18.08427,0 18.08427,0 0.12917,-1.939343 -0.0316,-3.799072 -0.48407,-5.576808 -0.45252,-1.777737 -1.1972,-3.360457 -2.23151,-4.750316 -1.002,-1.38988 -2.29282,-2.490036 -3.87661,-3.298071 -1.58381,-0.8403962 -3.44353,-1.2594054 -5.57681,-1.2594054 0,0 0,0 0,0 m 30.89479,0 c -0.8727,0 -1.7147,0.1309781 -2.52274,0.3896298 -0.80807,0.258571 -1.56765,0.6289571 -2.27874,1.1137778 -0.71111,0.4525198 -1.33964,1.0174988 -1.88911,1.6962678 -0.54948,0.646448 -0.98735,1.357377 -1.31056,2.133111 0,0 -0.0945,0 -0.0945,0 0,0 0,-4.6519216 0,-4.6519216 0,0 -6.54496,0 -6.54496,0 0,0 0,25.0660976 0,25.0660976 0,0 6.88343,0 6.88343,0 0,0 0,-11.299224 0,-11.299224 0,-1.131289 0.11224,-2.182782 0.33847,-3.152443 0.22627,-0.969682 0.59663,-1.807721 1.11377,-2.518811 0.54949,-0.743432 1.26437,-1.327232 2.13706,-1.74743 0.8727,-0.420198 1.93911,-0.629703 3.19968,-0.629703 0.4202,0 0.85412,0.03385 1.30664,0.09833 0.45252,0.03244 0.84172,0.08101 1.16494,0.145688 0,0 0,-6.399351 0,-6.399351 -0.54949,-0.1616069 -1.05089,-0.2440023 -1.50341,-0.2440023 0,0 4e-5,-2.01e-5 4e-5,-2.01e-5 m 14.57368,0 c -1.35754,0 -2.68209,0.1309781 -3.97499,0.3896298 -1.29289,0.2262496 -2.4566,0.645279 -3.49093,1.2594056 -1.0343,0.581805 -1.87234,1.390021 -2.51881,2.424345 -0.6141,1.034325 -0.92094,2.358877 -0.92094,3.975006 0,1.098947 0.22442,2.038242 0.67694,2.813975 0.45252,0.743432 1.05123,1.371966 1.79466,1.889109 0.74339,0.48484 1.58145,0.888958 2.51881,1.212192 0.96968,0.290893 1.9576,0.549061 2.95959,0.775311 2.4565,0.517162 4.36489,1.033478 5.72243,1.55064 1.38986,0.517162 2.08195,1.295596 2.08195,2.3299 0,0.614147 -0.14589,1.130462 -0.43684,1.55064 -0.29091,0.387857 -0.66128,0.7096 -1.1138,0.968171 -0.42018,0.22627 -0.90276,0.405972 -1.45225,0.535257 -0.51716,0.09692 -1.01858,0.145688 -1.50342,0.145688 -0.67877,0 -1.34106,-0.08241 -1.98749,-0.244022 -0.61414,-0.161607 -1.16421,-0.404864 -1.64903,-0.728078 -0.48484,-0.355555 -0.88898,-0.789496 -1.21219,-1.306638 -0.2909,-0.549503 -0.43685,-1.196878 -0.43685,-1.94027 0,0 -6.54498,0 -6.54498,0 0.0647,1.680752 0.43499,3.08772 1.11378,4.219008 0.71109,1.098968 1.60172,1.98567 2.66837,2.664419 1.09897,0.678789 2.34114,1.165302 3.731,1.456195 1.38986,0.290912 2.81172,0.436862 4.26622,0.436862 1.42219,0 2.81426,-0.145889 4.1718,-0.436862 1.38986,-0.258571 2.6171,-0.726244 3.68375,-1.405033 1.06663,-0.678749 1.92353,-1.569401 2.56997,-2.668368 0.67877,-1.131269 1.01934,-2.519395 1.01934,-4.167826 0,-1.16361 -0.22835,-2.136637 -0.68087,-2.91239 -0.45252,-0.808055 -1.05125,-1.470341 -1.79466,-1.987503 -0.74341,-0.549464 -1.60029,-0.983404 -2.56997,-1.306618 -0.93734,-0.323234 -1.90642,-0.600243 -2.90842,-0.826493 -0.96969,-0.226269 -1.92387,-0.435774 -2.86123,-0.629702 -0.93734,-0.193848 -1.77538,-0.403433 -2.51881,-0.629703 -0.71109,-0.258591 -1.29491,-0.580314 -1.74741,-0.968171 -0.45252,-0.387876 -0.67694,-0.889281 -0.67694,-1.503427 0,-0.517142 0.12715,-0.921261 0.38568,-1.212173 0.25857,-0.323214 0.56933,-0.566471 0.92489,-0.728098 0.38787,-0.161607 0.80688,-0.258913 1.2594,-0.291235 0.45252,-0.06468 0.87153,-0.09833 1.25941,-0.09833 1.22825,0 2.29466,0.243257 3.19967,0.728098 0.90502,0.452519 1.40645,1.34315 1.50341,2.668367 0,0 6.54498,0 6.54498,0 -0.12916,-1.551486 -0.53336,-2.827395 -1.21217,-3.829378 -0.64647,-1.034304 -1.4696,-1.861381 -2.4716,-2.475528 C 159.1788,9.5737261 158.03,9.1397853 156.7371,8.8812143 c -1.26055,-0.2585711 -2.57021,-0.3896298 -3.92777,-0.3896298 0,0 0,-1.209e-4 0,-1.209e-4 m 27.35271,0 c -1.90702,0 -3.65453,0.3405633 -5.23834,1.0193325 -1.55146,0.6787689 -2.89093,1.6141349 -4.02222,2.8100459 -1.13128,1.16361 -2.00307,2.555666 -2.6172,4.171775 -0.61413,1.61613 -0.92489,3.359711 -0.92489,5.234412 0,1.939323 0.29192,3.716677 0.87373,5.332786 0.61412,1.616129 1.471,3.008186 2.56997,4.171775 1.09895,1.16361 2.44236,2.069153 4.02617,2.715601 1.58379,0.614126 3.36112,0.920938 5.33278,0.920938 2.84439,0 5.26909,-0.647375 7.27308,-1.940271 2.00399,-1.292895 3.4894,-3.444524 4.45908,-6.450513 0,0 -6.0609,0 -6.0609,0 -0.22625,0.775733 -0.83989,1.520415 -1.84188,2.231505 -1.00198,0.678769 -2.19944,1.019333 -3.5893,1.019333 -1.93935,0 -3.42478,-0.501425 -4.45908,-1.503408 -1.03433,-1.002003 -1.59931,-2.618455 -1.69627,-4.848711 0,0 18.08427,0 18.08427,0 0.12917,-1.939343 -0.0316,-3.799072 -0.48407,-5.576808 -0.45252,-1.777737 -1.1972,-3.360457 -2.23151,-4.750316 -1.002,-1.38988 -2.29675,-2.490036 -3.88054,-3.298071 -1.58381,-0.8403962 -3.4396,-1.2594054 -5.57288,-1.2594054 0,0 0,0 0,0 M 58.259476,9.1723284 c 0,0 0,25.0660976 0,25.0660976 0,0 6.883427,0 6.883427,0 0,0 0,-25.0660976 0,-25.0660976 0,0 -6.883427,0 -6.883427,0 0,0 0,0 0,0 m 9.929616,0 c 0,0 8.579695,25.0660976 8.579695,25.0660976 0,0 7.662706,0 7.662706,0 0,0 8.485249,-25.0660976 8.485249,-25.0660976 0,0 -6.836214,0 -6.836214,0 0,0 -5.285573,17.1121766 -5.285573,17.1121766 0,0 -0.09834,0 -0.09834,0 0,0 -5.285553,-17.1121766 -5.285553,-17.1121766 0,0 -7.221914,0 -7.221914,0 0,0 -6.1e-5,0 -6.1e-5,0 M 12.074701,13.678642 c 1.680772,0 2.922929,0.452762 3.731004,1.3578 0.840376,0.905019 1.424216,2.229571 1.74743,3.974986 0,0 -11.2008499,0 -11.2008499,0 0.032442,-0.484841 0.1297691,-1.034888 0.291235,-1.649035 0.1938477,-0.614106 0.5007597,-1.193997 0.9209377,-1.743481 0.4525195,-0.549483 1.0363395,-1.002244 1.7474301,-1.3578 0.7434121,-0.387856 1.6638661,-0.58247 2.7628131,-0.58247 0,0 0,0 0,0 m 28.324834,0 c 1.131269,0 2.066614,0.228346 2.810046,0.680865 0.743412,0.452499 1.342143,1.051251 1.794643,1.794643 0.484841,0.71111 0.825404,1.549149 1.019332,2.518811 0.193848,0.93736 0.291235,1.925278 0.291235,2.959602 0,1.034325 -0.09733,2.033225 -0.291235,3.002907 -0.193847,0.969681 -0.51958,1.845401 -0.972099,2.621135 -0.45252,0.743411 -1.066143,1.338193 -1.841876,1.790713 -0.743432,0.452519 -1.678777,0.680865 -2.810046,0.680865 -1.066646,0 -1.9871,-0.228346 -2.762833,-0.680865 -0.743412,-0.484841 -1.375875,-1.098464 -1.893037,-1.841876 -0.484841,-0.775753 -0.840296,-1.647544 -1.066566,-2.617205 -0.226249,-0.969662 -0.338467,-1.938779 -0.338467,-2.908441 0,-1.034324 0.09733,-2.022262 0.291235,-2.959603 0.226249,-0.969661 0.566833,-1.822611 1.019332,-2.566043 0.484861,-0.743392 1.113395,-1.342144 1.889108,-1.794643 0.775754,-0.452519 1.72994,-0.680865 2.861228,-0.680865 0,0 0,0 0,0 m 66.748485,0 c 1.68076,0 2.92291,0.452762 3.73099,1.3578 0.84037,0.905019 1.42419,2.229571 1.74743,3.974986 0,0 -11.20085,0 -11.20085,0 0.0324,-0.484841 0.12957,-1.034888 0.29123,-1.649035 0.19385,-0.614106 0.50076,-1.193997 0.92094,-1.743481 0.45252,-0.549483 1.03634,-1.002244 1.74743,-1.3578 0.74343,-0.387856 1.66387,-0.58247 2.76283,-0.58247 0,0 0,0 0,0 m 72.81723,0 c 1.68078,0 2.92688,0.452762 3.73494,1.3578 0.84037,0.905019 1.42026,2.229571 1.74348,3.974986 0,0 -11.1969,0 -11.1969,0 0.0324,-0.484841 0.12977,-1.034888 0.29123,-1.649035 0.19385,-0.614106 0.50076,-1.193997 0.92096,-1.743481 0.4525,-0.549483 1.03239,-1.002244 1.74348,-1.3578 0.74341,-0.387856 1.66385,-0.58247 2.76281,-0.58247 0,0 0,0 0,0"
         id="fediverseTextUnder"
         inkscape:connector-curvature="0" />
      <path
         style="color:#000000;display:inline;overflow:visible;visibility:visible;opacity:0;fill:#000000;fill-opacity:1;fill-rule:nonzero;stroke:none;stroke-width:0.5;stroke-linecap:round;stroke-linejoin:round;stroke-miterlimit:4;stroke-dasharray:none;stroke-dashoffset:0;stroke-opacity:1;marker:none;marker-start:none;marker-mid:none;marker-end:none;enable-background:accumulate"
         d="m -29.08424,-5.1652267 c 0,0 0,12.9522091 0,12.9522091 0,0 0,10.7954626 0,10.7954626 0,0 0,19.430268 0,19.430268 0,0 224.53232,0 224.53232,0 0,0 0,-30.2257306 0,-30.2257306 0,0 -128.097268,0 -128.097268,0 0,0 0,-12.9522091 0,-12.9522091 0,0 -96.435052,0 -96.435052,0 0,0 0,0 0,0"
         id="blaa"
         inkscape:connector-curvature="0" />
    </g>
    <path
       d="m 76.347427,-17.371788 c 0,0 0,-9.113057 0,-9.113057 0,0 7.798238,0 7.798238,0 1.63219,0 2.856332,0.362708 3.672426,1.088126 0.816095,0.695192 1.224143,1.828657 1.224143,3.400395 0,1.632189 -0.408048,2.810992 -1.224143,3.53641 -0.816094,0.725418 -2.040236,1.088126 -3.672426,1.088126 0,0 -7.798238,0 -7.798238,0 0,0 0,0 0,0 m -7.11816,-14.644366 c 0,0 0,32.37175735 0,32.37175735 0,0 7.11816,0 7.11816,0 0,0 0,-12.64946835 0,-12.64946835 0,0 7.118159,0 7.118159,0 1.783318,0 3.067912,0.392935 3.853781,1.178804 0.785869,0.785869 1.299706,2.0251235 1.541512,3.7177644 0.181355,1.2997065 0.31737,2.6598643 0.408047,4.0804737 0.09068,1.4206093 0.332484,2.64475141 0.725418,3.67242625 0,0 7.11816,0 7.11816,0 -0.332483,-0.45338596 -0.589402,-0.99744911 -0.770757,-1.63218945 -0.151128,-0.6649661 -0.272031,-1.3601579 -0.362708,-2.0855754 -0.06045,-0.7254176 -0.10579,-1.4357222 -0.136016,-2.130914 -0.03023,-0.6951918 -0.06045,-1.2997064 -0.09068,-1.8135439 -0.06045,-0.8160947 -0.181355,-1.6321894 -0.362709,-2.4482841 -0.151129,-0.8160945 -0.408047,-1.5566255 -0.770756,-2.2215915 -0.362709,-0.695192 -0.831208,-1.284593 -1.405497,-1.768205 -0.574289,-0.513837 -1.299706,-0.891659 -2.176252,-1.133465 0,0 0,-0.09068 0,-0.09068 1.813544,-0.725418 3.11325,-1.783318 3.899119,-3.173702 0.816095,-1.390383 1.224142,-3.037686 1.224142,-4.941907 0,-1.239255 -0.226693,-2.387832 -0.680079,-3.445733 -0.42316,-1.088126 -1.0579,-2.040237 -1.904221,-2.856332 -0.816095,-0.816094 -1.813544,-1.450835 -2.992347,-1.904221 -1.148578,-0.483611 -2.448284,-0.725417 -3.899119,-0.725417 0,0 -17.45536,0 -17.45536,0 0,0 0,0 0,0"
       style="font-style:normal;font-variant:normal;font-weight:bold;font-stretch:normal;font-size:medium;line-height:81.00000024%;font-family:'Helvetica Neue';-inkscape-font-specification:'Helvetica Neue Bold';text-align:end;letter-spacing:0px;word-spacing:0px;text-anchor:end;fill:#635c82;fill-opacity:1;stroke:none;stroke-width:1px;stroke-linecap:butt;stroke-linejoin:miter;stroke-opacity:1"
       id="path4815"
       inkscape:connector-curvature="0" />
    <path
       d="m 100.95282,-15.875614 c 0,0 6.43808,0 6.43808,0 0.12091,-1.269481 0.54407,-2.176253 1.26949,-2.720316 0.72541,-0.544063 1.72286,-0.816094 2.99234,-0.816094 0.57429,0 1.10324,0.04534 1.58685,0.136015 0.51383,0.06045 0.95211,0.21158 1.31481,0.453386 0.39294,0.21158 0.6952,0.528951 0.90678,0.952111 0.2418,0.392934 0.36271,0.936997 0.36271,1.632189 0.0302,0.664966 -0.16625,1.178804 -0.58941,1.541512 -0.42316,0.332484 -0.99745,0.589402 -1.72286,0.770757 -0.72541,0.181354 -1.55662,0.31737 -2.49362,0.408047 -0.937,0.09068 -1.88911,0.21158 -2.85633,0.362709 -0.96722,0.151128 -1.93445,0.362709 -2.90167,0.63474 -0.937,0.241806 -1.78332,0.619628 -2.53896,1.133465 -0.72542,0.513837 -1.32993,1.209029 -1.81354,2.0855754 -0.45339,0.8463205 -0.68008,1.9344468 -0.68008,3.2643789 0,1.2090292 0.19646,2.251817 0.5894,3.1283631 0.42316,0.8765462 0.99745,1.6019638 1.72286,2.17625265 0.72542,0.57428888 1.57174,0.99744911 2.53897,1.26948069 0.96722,0.27203157 2.01001,0.40804736 3.12836,0.40804736 1.45083,0 2.87144,-0.21158011 4.26183,-0.63474034 1.39037,-0.42316023 2.5994,-1.16369063 3.62708,-2.22159116 0.0302,0.3929345 0.0756,0.785869 0.13601,1.17880345 0.0907,0.36270877 0.19647,0.72541754 0.31737,1.0881263 0,0 6.52875,0 6.52875,0 -0.30226,-0.48361169 -0.51384,-1.20902922 -0.63474,-2.17625265 -0.1209,-0.9672233 -0.18135,-1.9797853 -0.18135,-3.0376859 0,0 0,-12.1960818 0,-12.1960818 0,-1.42061 -0.31737,-2.554075 -0.95211,-3.400395 -0.63475,-0.876546 -1.45084,-1.556625 -2.44829,-2.040237 -0.99745,-0.483612 -2.10068,-0.800982 -3.30971,-0.952111 -1.20903,-0.181354 -2.40294,-0.272031 -3.58174,-0.272031 -1.2997,0 -2.59941,0.136016 -3.89912,0.408047 -1.26948,0.241806 -2.41806,0.664966 -3.44573,1.269481 -1.02767,0.604515 -1.874,1.405496 -2.53896,2.402946 -0.66497,0.997449 -1.04279,2.251816 -1.13347,3.763103 0,0 0,0 0,0 m 14.87106,4.760553 c 0,0 0,2.4029452 0,2.4029452 0,0.3627087 -0.0453,0.8463204 -0.13602,1.450835 -0.0605,0.6045146 -0.25692,1.2090293 -0.5894,1.8135439 -0.33249,0.5742889 -0.84632,1.0730134 -1.54151,1.4961736 -0.69519,0.4231603 -1.67752,0.6347404 -2.94701,0.6347404 -0.51383,0 -1.01256,-0.045339 -1.49617,-0.1360158 -0.48361,-0.090677 -0.90677,-0.2418059 -1.26948,-0.453386 -0.36271,-0.2418058 -0.64985,-0.559176 -0.86143,-0.9521105 -0.21158,-0.3929345 -0.31737,-0.8765462 -0.31737,-1.4508351 0,-0.6045146 0.10579,-1.1032391 0.31737,-1.4961736 0.21158,-0.3929345 0.48361,-0.7103047 0.81609,-0.9521105 0.36271,-0.2720316 0.77076,-0.4836117 1.22414,-0.6347404 0.48362,-0.1511286 0.96723,-0.2720316 1.45084,-0.3627087 0.51384,-0.090677 1.02767,-0.1662416 1.54151,-0.226693 0.51384,-0.060451 0.99744,-0.1360155 1.45083,-0.2266935 0.48361,-0.09068 0.92188,-0.196467 1.31482,-0.31737 0.42316,-0.151128 0.77075,-0.347596 1.04279,-0.589401 0,0 0,0 0,0"
       style="font-style:normal;font-variant:normal;font-weight:bold;font-stretch:normal;font-size:medium;line-height:81.00000024%;font-family:'Helvetica Neue';-inkscape-font-specification:'Helvetica Neue Bold';text-align:end;letter-spacing:0px;word-spacing:0px;text-anchor:end;fill:#635c82;fill-opacity:1;stroke:none;stroke-width:1px;stroke-linecap:butt;stroke-linejoin:miter;stroke-opacity:1"
       id="path4817"
       inkscape:connector-curvature="0" />
    <path
       d="m 143.80982,-11.432432 c 0,0.967224 -0.0907,1.9042214 -0.27203,2.8109934 -0.18136,0.9067719 -0.48361,1.7228666 -0.90677,2.4482841 -0.42316,0.6951918 -0.99745,1.2543679 -1.72287,1.6775281 -0.69519,0.4231602 -1.57174,0.6347403 -2.62964,0.6347403 -0.99745,0 -1.85888,-0.2115801 -2.5843,-0.6347403 -0.69519,-0.453386 -1.28459,-1.0276749 -1.7682,-1.7228667 -0.45339,-0.7254175 -0.78587,-1.5415122 -0.99745,-2.4482841 -0.21158,-0.906772 -0.31737,-1.8135438 -0.31737,-2.7203158 0,-0.967223 0.0907,-1.889108 0.27203,-2.765654 0.21158,-0.906772 0.52895,-1.707754 0.95211,-2.402946 0.45339,-0.695192 1.04279,-1.254368 1.7682,-1.677528 0.72542,-0.42316 1.61708,-0.63474 2.67498,-0.63474 1.0579,0 1.93445,0.21158 2.62964,0.63474 0.69519,0.42316 1.25437,0.982336 1.67753,1.677528 0.45338,0.664966 0.77075,1.450835 0.95211,2.357607 0.18135,0.876546 0.27203,1.798431 0.27203,2.765654 0,0 0,0 0,0 m 0.0907,8.795688 c 0,0 0,2.99234735 0,2.99234735 0,0 6.12071,0 6.12071,0 0,0 0,-32.37175735 0,-32.37175735 0,0 -6.43808,0 -6.43808,0 0,0 0,11.788035 0,11.788035 0,0 -0.0907,0 -0.0907,0 -0.72542,-1.148578 -1.72287,-2.010011 -2.99235,-2.5843 -1.23925,-0.604515 -2.55407,-0.906772 -3.94445,-0.906772 -1.72287,0 -3.23416,0.347596 -4.53386,1.042788 -1.29971,0.664966 -2.38784,1.556625 -3.26438,2.674977 -0.84632,1.118352 -1.49618,2.418058 -1.94956,3.899119 -0.42316,1.450835 -0.63474,2.962122 -0.63474,4.53386 0,1.6321891 0.21158,3.2039271 0.63474,4.7152136 0.45338,1.5112865 1.10324,2.8563315 1.94956,4.035135 0.87654,1.1485778 1.97978,2.07046259 3.30971,2.76565439 1.32994,0.66496607 2.87145,0.99744911 4.62454,0.99744911 1.54151,0 2.91678,-0.27203157 4.12581,-0.81609473 1.23926,-0.57428888 2.23671,-1.49617367 2.99235,-2.76565437 0,0 0.0907,0 0.0907,0 0,0 0,0 0,0"
       style="font-style:normal;font-variant:normal;font-weight:bold;font-stretch:normal;font-size:medium;line-height:81.00000024%;font-family:'Helvetica Neue';-inkscape-font-specification:'Helvetica Neue Bold';text-align:end;letter-spacing:0px;word-spacing:0px;text-anchor:end;fill:#635c82;fill-opacity:1;stroke:none;stroke-width:1px;stroke-linecap:butt;stroke-linejoin:miter;stroke-opacity:1"
       id="path4819"
       inkscape:connector-curvature="0" />
    <path
       d="m 161.4182,-26.711538 c 0,0 0,-5.304616 0,-5.304616 0,0 -6.43808,0 -6.43808,0 0,0 0,5.304616 0,5.304616 0,0 6.43808,0 6.43808,0 0,0 0,0 0,0 m -6.43808,3.627087 c 0,0 0,23.44005435 0,23.44005435 0,0 6.43808,0 6.43808,0 0,0 0,-23.44005435 0,-23.44005435 0,0 -6.43808,0 -6.43808,0 0,0 0,0 0,0"
       style="font-style:normal;font-variant:normal;font-weight:bold;font-stretch:normal;font-size:medium;line-height:81.00000024%;font-family:'Helvetica Neue';-inkscape-font-specification:'Helvetica Neue Bold';text-align:end;letter-spacing:0px;word-spacing:0px;text-anchor:end;fill:#635c82;fill-opacity:1;stroke:none;stroke-width:1px;stroke-linecap:butt;stroke-linejoin:miter;stroke-opacity:1"
       id="path4821"
       inkscape:connector-curvature="0" />
    <path
       d="m 172.20029,-11.341754 c 0,-0.936998 0.0907,-1.858883 0.27203,-2.765655 0.18135,-0.906772 0.48361,-1.707754 0.90677,-2.402945 0.45338,-0.695192 1.04279,-1.254368 1.7682,-1.677528 0.72542,-0.453386 1.63219,-0.680079 2.72032,-0.680079 1.08813,0 1.9949,0.226693 2.72032,0.680079 0.75564,0.42316 1.34504,0.982336 1.7682,1.677528 0.45339,0.695191 0.77076,1.496173 0.95211,2.402945 0.18136,0.906772 0.27203,1.828657 0.27203,2.765655 0,0.936997 -0.0907,1.858882 -0.27203,2.7656539 -0.18135,0.8765462 -0.49872,1.6775281 -0.95211,2.4029456 -0.42316,0.6951918 -1.01256,1.2543679 -1.7682,1.6775281 -0.72542,0.4231602 -1.63219,0.6347403 -2.72032,0.6347403 -1.08813,0 -1.9949,-0.2115801 -2.72032,-0.6347403 -0.72541,-0.4231602 -1.31482,-0.9823363 -1.7682,-1.6775281 -0.42316,-0.7254175 -0.72542,-1.5263994 -0.90677,-2.4029456 -0.18136,-0.9067719 -0.27203,-1.8286569 -0.27203,-2.7656539 0,0 0,0 0,0 m -6.43809,0 c 0,1.8739949 0.28715,3.5666358 0.86144,5.0779223 0.57429,1.5112866 1.39038,2.810993 2.44828,3.8991193 1.0579,1.0579006 2.32738,1.8739953 3.80844,2.44828418 1.48107,0.57428888 3.14348,0.86143332 4.98725,0.86143332 1.84377,0 3.50618,-0.28714444 4.98725,-0.86143332 1.51128,-0.57428888 2.79588,-1.39038358 3.85378,-2.44828418 1.0579,-1.0881263 1.87399,-2.3878327 2.44828,-3.8991193 0.57429,-1.5112865 0.86143,-3.2039274 0.86143,-5.0779223 0,-1.873996 -0.28714,-3.566637 -0.86143,-5.077923 -0.57429,-1.541512 -1.39038,-2.841219 -2.44828,-3.899119 -1.0579,-1.088127 -2.3425,-1.919334 -3.85378,-2.493623 -1.48107,-0.604515 -3.14348,-0.906772 -4.98725,-0.906772 -1.84377,0 -3.50618,0.302257 -4.98725,0.906772 -1.48106,0.574289 -2.75054,1.405496 -3.80844,2.493623 -1.0579,1.0579 -1.87399,2.357607 -2.44828,3.899119 -0.57429,1.511286 -0.86144,3.203927 -0.86144,5.077923 0,0 0,0 0,0"
       style="font-style:normal;font-variant:normal;font-weight:bold;font-stretch:normal;font-size:medium;line-height:81.00000024%;font-family:'Helvetica Neue';-inkscape-font-specification:'Helvetica Neue Bold';text-align:end;letter-spacing:0px;word-spacing:0px;text-anchor:end;fill:#635c82;fill-opacity:1;stroke:none;stroke-width:1px;stroke-linecap:butt;stroke-linejoin:miter;stroke-opacity:1"
       id="path4823"
       inkscape:connector-curvature="0" />
    <rect
       style="color:#000000;display:none;overflow:visible;visibility:visible;opacity:1;fill:#ff0000;fill-opacity:1;fill-rule:nonzero;stroke:#000000;stroke-width:0.5;stroke-linecap:round;stroke-linejoin:round;stroke-miterlimit:4;stroke-dasharray:none;stroke-dashoffset:0;stroke-opacity:1;marker:none;marker-start:none;marker-mid:none;marker-end:none;enable-background:accumulate"
       id="thePoint"
       width="3.0357132"
       height="3.3928604"
       x="0"
       y="0"
       inkscape:label="#rect4251" />
    <circle
       inkscape:label="#path4166"
       r="55.272755"
       cy="115.34487"
       cx="15.881867"
       id="volumeKnobGlass"
       style="color:#000000;display:inline;overflow:visible;visibility:visible;opacity:0;fill:#ff0000;fill-opacity:1;fill-rule:nonzero;stroke:#000000;stroke-width:1.28969753;stroke-linecap:round;stroke-linejoin:round;stroke-miterlimit:4;stroke-dasharray:none;stroke-dashoffset:0;stroke-opacity:1;marker:none;marker-start:none;marker-mid:none;marker-end:none;enable-background:accumulate" />
  </g>
</svg>
